<?xml version="1.0" standalone="no"?>
<!DOCTYPE svg PUBLIC "-//W3C//DTD SVG 20010904//EN"
 "http://www.w3.org/TR/2001/REC-SVG-20010904/DTD/svg10.dtd">
<svg version="1.0" xmlns="http://www.w3.org/2000/svg"
 width="900.000000pt" height="909.000000pt" viewBox="0 0 900.000000 909.000000"
 preserveAspectRatio="xMidYMid meet">
<metadata>
Created by potrace 1.10, written by Peter Selinger 2001-2011
</metadata>
<g transform="translate(0.000000,909.000000) scale(0.100000,-0.100000)"
fill="#000000" stroke="none">
<path d="M3570 7990 c-189 -29 -292 -60 -456 -140 -124 -61 -210 -125 -335
-250 -148 -147 -245 -305 -308 -500 -59 -181 -56 -160 -56 -415 l0 -240 33
-105 c19 -58 39 -116 45 -130 33 -76 35 -89 17 -105 -10 -9 -50 -20 -91 -25
-96 -11 -156 -30 -229 -72 -8 -4 -24 -12 -35 -17 -69 -32 -219 -187 -259 -269
-10 -21 -23 -45 -28 -56 -36 -70 -50 -144 -51 -276 -1 -113 3 -146 21 -205 44
-139 123 -260 224 -346 61 -51 215 -139 244 -139 12 0 37 -6 56 -14 27 -12
116 -15 441 -18 349 -3 409 -5 417 -18 5 -8 10 -88 10 -178 l0 -163 -27 -25
c-16 -13 -54 -47 -85 -76 -32 -28 -65 -65 -74 -82 -21 -41 -54 -146 -54 -171
0 -26 35 -136 55 -175 22 -42 94 -112 141 -137 92 -47 76 -47 1324 -47 1232
-1 1297 1 1377 43 56 29 126 103 158 168 24 50 29 70 29 143 1 127 -38 202
-158 298 l-66 53 0 168 c0 145 2 171 17 182 13 11 100 15 432 20 453 6 424 2
565 69 159 75 317 257 369 425 34 107 41 187 27 302 -7 59 -19 122 -26 140 -8
18 -21 50 -30 70 -42 98 -160 235 -257 297 -68 44 -197 97 -252 105 -34 5 -40
10 -43 33 -2 15 4 50 12 79 24 79 20 159 -15 298 -52 208 -136 362 -269 492
-143 140 -308 231 -510 280 -152 38 -396 18 -551 -45 -36 -14 -68 -26 -72 -26
-11 0 -131 -73 -184 -112 -29 -21 -61 -38 -71 -38 -20 0 -44 39 -57 93 -4 15
-11 30 -16 33 -5 3 -9 13 -9 23 0 17 -63 141 -105 206 -95 148 -284 330 -429
412 -144 83 -357 163 -431 163 -22 0 -56 4 -75 9 -52 14 -237 20 -300 11z
m330 -254 c151 -27 230 -58 378 -149 126 -77 283 -240 354 -368 38 -68 98
-210 98 -231 0 -11 5 -28 11 -39 5 -11 16 -73 23 -137 16 -140 25 -166 68
-192 67 -41 127 -19 186 68 105 153 278 283 429 321 21 6 56 15 78 20 66 17
241 13 325 -8 243 -59 465 -261 538 -486 72 -222 71 -253 -9 -408 -16 -32 -36
-83 -44 -114 -12 -47 -12 -59 -1 -82 30 -57 69 -70 276 -87 109 -9 194 -49
277 -132 112 -112 159 -253 135 -408 -28 -176 -169 -335 -338 -379 -78 -20
-805 -23 -822 -2 -6 7 -13 161 -17 397 l-8 385 -30 63 c-20 40 -50 81 -81 109
-85 76 -103 82 -303 93 -222 12 -1586 13 -1784 1 -170 -11 -225 -31 -301 -109
-100 -102 -107 -140 -107 -604 -1 -174 -4 -323 -7 -332 -5 -14 -49 -16 -392
-16 -443 0 -461 3 -573 79 -81 56 -127 109 -170 199 -32 65 -33 71 -33 192 1
123 1 126 37 200 47 96 134 183 231 229 65 31 75 33 215 37 213 7 275 19 306
56 44 52 35 102 -37 214 -48 75 -79 143 -128 286 -29 84 -43 273 -30 405 34
346 260 674 570 828 41 20 83 41 93 47 41 21 143 47 287 72 41 8 220 -3 300
-18z m1633 -2012 c19 -9 43 -30 53 -48 18 -29 19 -63 22 -641 2 -335 -1 -635
-5 -665 l-8 -55 -433 -5 -434 -5 -34 -40 c-19 -22 -41 -48 -49 -57 -12 -15
-32 -18 -109 -18 l-94 0 -22 36 c-39 62 -53 67 -248 75 -97 4 -292 8 -433 8
-225 1 -258 3 -263 17 -11 29 -7 1260 5 1313 15 73 32 83 147 91 53 4 496 8
984 8 798 2 891 0 921 -14z m-1363 -1666 c5 -7 20 -26 32 -42 39 -52 65 -56
330 -56 134 0 259 5 279 10 24 7 50 26 74 55 l36 45 342 -1 c188 0 384 -4 435
-7 87 -7 94 -9 117 -37 38 -47 34 -102 -10 -148 -20 -20 -46 -39 -59 -43 -13
-3 -561 -4 -1217 -2 -1330 3 -1233 -2 -1278 71 -26 43 -26 61 0 103 39 64 31
63 491 64 322 0 420 -3 428 -12z"/>
<path d="M6415 3471 c-87 -8 -165 -44 -224 -105 -41 -42 -54 -60 -83 -116 -10
-20 -14 -240 -16 -1072 l-3 -1048 26 -53 c36 -72 108 -145 175 -175 41 -19 81
-28 155 -33 126 -10 565 -10 840 0 194 6 214 9 258 31 69 34 130 96 166 168
l31 62 -2 1052 -3 1053 -36 55 c-53 79 -88 114 -155 152 l-59 33 -500 1 c-275
1 -531 -1 -570 -5z m715 -246 c10 -12 10 -21 2 -40 -22 -49 -52 -58 -205 -62
-156 -5 -189 4 -231 60 -16 22 -17 29 -6 42 19 22 421 23 440 0z m-688 -38
c12 -60 64 -159 100 -193 56 -52 141 -93 215 -104 88 -12 265 -12 323 0 92 21
200 83 236 138 30 44 54 91 54 104 0 7 7 32 16 55 20 51 47 57 85 17 l24 -26
3 -1000 c3 -1104 7 -1029 -61 -1062 -31 -14 -91 -16 -530 -16 l-494 0 -40 29
-40 29 -6 593 c-4 327 -7 774 -7 995 l0 401 31 42 c24 34 35 42 57 39 21 -2
28 -10 34 -41z"/>
<path d="M4213 3351 l-22 -10 -3 -473 c-3 -417 -5 -477 -19 -503 -37 -67 -33
-66 -309 -75 -138 -4 -256 -12 -261 -17 -5 -5 -8 -54 -7 -108 l3 -99 35 -9
c19 -5 143 -7 275 -5 l240 4 67 32 c107 53 172 136 199 257 18 77 20 978 3
995 -14 14 -173 23 -201 11z"/>
<path d="M4708 3353 l-38 -4 0 -526 0 -525 35 -58 c44 -73 100 -123 173 -157
l57 -27 399 -4 c219 -2 423 -1 453 3 l54 7 -3 106 -3 107 -110 6 c-60 4 -248
7 -417 8 -178 0 -318 5 -333 11 -68 26 -75 56 -75 311 0 276 -12 716 -19 728
-8 12 -119 21 -173 14z"/>
<path d="M1190 3325 c-25 -13 -55 -28 -67 -34 -31 -14 -98 -107 -122 -169 -21
-51 -21 -68 -21 -711 0 -587 2 -664 17 -710 22 -70 112 -167 189 -206 l59 -30
220 -3 c121 -1 230 -4 243 -7 32 -8 28 -29 -25 -163 -41 -102 -47 -127 -47
-192 -1 -61 3 -82 22 -112 32 -52 85 -95 134 -110 56 -17 708 -16 751 1 45 18
96 63 124 111 22 36 27 58 27 110 0 39 -6 79 -15 100 -9 19 -23 53 -32 75 -8
22 -22 58 -32 81 -9 22 -15 54 -13 70 l3 29 240 5 c238 5 241 5 297 33 70 35
158 127 183 193 18 46 19 95 23 704 3 606 2 659 -15 710 -25 79 -87 157 -163
207 l-65 43 -935 -1 -935 0 -45 -24z m1865 -223 c6 -4 22 -22 34 -41 l24 -33
-1 -415 c0 -229 -4 -419 -9 -424 -5 -5 -408 -8 -944 -7 l-934 3 -3 432 -2 431
26 31 26 31 886 0 c488 0 892 -4 897 -8z m43 -1174 c18 -18 15 -135 -4 -168
-38 -63 15 -60 -939 -60 l-867 0 -34 34 c-34 34 -35 36 -32 113 l3 78 170 5
c94 3 512 7 930 8 581 1 764 -1 773 -10z m-781 -480 c5 -7 17 -33 27 -58 10
-25 24 -58 31 -75 59 -138 77 -186 72 -200 -6 -13 -43 -15 -282 -15 -238 0
-276 2 -281 15 -10 26 109 320 135 335 25 15 287 13 298 -2z"/>
</g>
</svg>
