<?xml version="1.0" standalone="no"?>
<!DOCTYPE svg PUBLIC "-//W3C//DTD SVG 20010904//EN"
 "http://www.w3.org/TR/2001/REC-SVG-20010904/DTD/svg10.dtd">
<svg version="1.0" xmlns="http://www.w3.org/2000/svg"
 width="300.000000pt" height="295.000000pt" viewBox="0 0 300.000000 295.000000"
 preserveAspectRatio="xMidYMid meet">
<metadata>
Created by potrace 1.10, written by Peter Selinger 2001-2011
</metadata>
<g transform="translate(0.000000,295.000000) scale(0.100000,-0.100000)"
fill="#000000" stroke="none">
<path d="M1525 2861 c-59 -15 -106 -44 -154 -97 -50 -54 -50 -54 -91 -45 -91
20 -192 -46 -215 -140 -4 -17 -17 -29 -39 -37 -51 -19 -102 -75 -121 -133 -15
-44 -16 -60 -6 -106 16 -70 63 -131 131 -168 l55 -30 400 0 400 0 53 30 c173
95 214 280 93 417 -35 40 -104 78 -142 78 -20 0 -27 8 -41 48 -29 81 -112 153
-203 177 -64 16 -74 17 -120 6z m122 -66 c82 -24 162 -121 163 -196 0 -25 3
-27 59 -31 72 -5 119 -37 150 -101 40 -83 24 -174 -44 -240 -66 -64 -86 -67
-480 -67 -404 0 -429 4 -488 69 -45 50 -63 111 -48 161 15 52 68 99 122 108
43 8 44 8 44 48 0 81 72 137 147 115 20 -6 51 -23 68 -37 17 -14 37 -23 45
-20 17 6 20 42 5 51 -19 12 -10 36 31 80 28 31 57 50 88 59 60 19 77 19 138 1z"/>
<path d="M1550 2725 c-18 -22 -5 -45 27 -45 65 0 113 -57 113 -133 0 -40 24
-62 41 -36 29 47 -11 170 -66 200 -46 26 -100 32 -115 14z"/>
<path d="M1490 1976 l0 -86 -294 0 c-281 0 -294 -1 -319 -21 -34 -26 -49 -79
-45 -159 2 -54 6 -65 22 -68 27 -6 36 15 36 90 0 66 14 98 43 98 7 0 282 0
612 0 538 -1 601 -2 617 -17 15 -13 18 -32 18 -114 0 -76 3 -101 16 -114 30
-30 39 -12 42 91 4 114 -8 165 -45 193 -25 20 -38 21 -334 21 l-308 0 -3 83
c-3 81 -3 82 -30 85 l-28 3 0 -85z"/>
<path d="M384 1558 c-41 -19 -44 -45 -44 -372 l0 -313 26 -27 c27 -26 27 -26
191 -26 l165 0 -7 -32 c-14 -63 -24 -80 -44 -73 -10 3 -30 1 -45 -4 -31 -12
-35 -45 -8 -60 27 -15 449 -1 462 14 19 23 0 44 -45 51 -41 6 -44 8 -54 49 -6
24 -11 46 -11 49 0 3 72 6 159 6 155 0 161 1 188 24 l28 24 0 327 0 327 -28
24 -28 24 -442 -1 c-283 0 -450 -4 -463 -11z m894 -305 l2 -243 -434 0 -434 0
-4 233 c-2 127 -2 238 0 245 3 10 96 12 436 10 l431 -3 3 -242z m-402 -319
c12 -17 12 -23 1 -39 -20 -26 -67 -13 -67 18 0 47 41 60 66 21z"/>
<path d="M1924 1496 c-45 -20 -64 -53 -64 -108 0 -35 6 -54 24 -75 l24 -28
325 -3 325 -3 28 25 c26 22 29 31 29 85 0 53 -4 64 -28 88 l-27 28 -303 3
c-241 2 -308 -1 -333 -12z m436 -91 c20 -25 8 -50 -25 -50 -21 0 -31 5 -33 18
-4 21 14 47 33 47 7 0 18 -7 25 -15z m134 2 c28 -21 17 -51 -20 -55 -36 -4
-50 18 -34 49 12 22 29 24 54 6z"/>
<path d="M1910 1228 c-65 -24 -68 -158 -3 -187 16 -7 129 -11 339 -11 l315 0
24 25 c20 20 25 34 25 78 0 38 -6 62 -18 77 -18 22 -20 22 -341 24 -177 0
-330 -2 -341 -6z m444 -71 c25 -18 17 -51 -14 -55 -35 -5 -56 25 -33 50 19 22
24 22 47 5z m149 -8 c16 -26 1 -49 -33 -49 -16 0 -30 2 -30 4 0 2 -3 11 -6 19
-7 18 23 49 44 45 8 -2 19 -10 25 -19z"/>
<path d="M2194 983 l-282 -3 -26 -27 c-34 -34 -37 -107 -5 -147 l20 -26 330 0
c200 0 338 4 349 10 25 13 43 73 36 114 -9 46 -42 73 -96 78 -25 2 -172 2
-326 1z m174 -106 c-2 -17 -10 -22 -33 -22 -35 0 -47 31 -20 51 25 18 57 0 53
-29z m126 30 c29 -21 16 -51 -22 -55 -28 -3 -32 0 -32 20 0 22 16 48 30 48 3
0 14 -6 24 -13z"/>
<path d="M1892 705 c-29 -24 -32 -33 -32 -80 0 -55 23 -98 58 -109 11 -4 22
-22 28 -48 8 -40 12 -43 50 -51 22 -4 58 -4 80 1 37 7 39 10 42 50 l3 42 115
0 114 0 0 -26 c0 -60 42 -82 130 -67 42 8 45 11 50 45 4 28 13 42 39 60 40 27
54 65 46 124 -11 80 -5 79 -369 82 l-323 3 -31 -26z m466 -81 c4 -25 -20 -47
-42 -38 -19 7 -22 50 -3 57 23 10 42 2 45 -19z m150 17 c8 -5 12 -17 10 -27
-5 -26 -75 -33 -85 -8 -11 30 43 56 75 35z"/>
<path d="M1320 540 c-26 -26 -26 -80 1 -114 18 -23 28 -26 78 -26 72 0 91 17
91 82 0 61 -20 78 -93 78 -44 0 -62 -5 -77 -20z"/>
<path d="M456 535 c-8 -8 -18 -37 -21 -63 -4 -26 -8 -54 -11 -62 -10 -40 -2
-40 387 -38 l374 3 -1 73 c-1 41 -7 79 -14 87 -19 23 -691 22 -714 0z m672
-71 l3 -31 -77 -6 c-42 -4 -189 -7 -326 -7 l-250 0 7 33 c4 17 13 35 19 39 6
5 148 7 316 5 l305 -2 3 -31z"/>
</g>
</svg>
